<svg width="88" height="88" viewBox="0 0 88 88" fill="none" xmlns="http://www.w3.org/2000/svg">
<g id="Group 79">
<g id="Rectangle 31">
<rect y="-6.10352e-05" width="88" height="88" rx="30" fill="#2875E9"/>
<rect x="0.5" y="0.499939" width="87" height="87" rx="29.5" stroke="white" stroke-opacity="0.1"/>
</g>
<g id="Group 78">
<path id="Vector" fill-rule="evenodd" clip-rule="evenodd" d="M20 34.7499C20 29.3651 24.2085 24.9999 29.4 24.9999H57.6C62.7914 24.9999 67 29.3651 67 34.7499V35.9686C67 36.6417 66.4738 37.1874 65.825 37.1874H21.175C20.5261 37.1874 20 36.6417 20 35.9686V34.7499ZM21.175 42.0624C20.5261 42.0624 20 42.6081 20 43.2811V54.2499C20 59.6346 24.2085 63.9999 29.4 63.9999H57.6C62.7914 63.9999 67 59.6346 67 54.2499V43.2811C67 42.6081 66.4738 42.0624 65.825 42.0624H21.175ZM45.85 51.8124C45.85 50.4661 46.9021 49.3749 48.2 49.3749H55.25C56.5479 49.3749 57.6 50.4661 57.6 51.8124C57.6 53.1586 56.5479 54.2499 55.25 54.2499H48.2C46.9021 54.2499 45.85 53.1586 45.85 51.8124Z" fill="#1B4380"/>
<path id="Vector_2" fill-rule="evenodd" clip-rule="evenodd" d="M20 34.7499C20 29.3651 24.2085 24.9999 29.4 24.9999H57.6C62.7914 24.9999 67 29.3651 67 34.7499V35.9686C67 36.6417 66.4738 37.1874 65.825 37.1874H21.175C20.5261 37.1874 20 36.6417 20 35.9686V34.7499ZM45.85 51.8124C45.85 50.4661 46.9021 49.3749 48.2 49.3749H55.25C56.5479 49.3749 57.6 50.4661 57.6 51.8124C57.6 53.1586 56.5479 54.2499 55.25 54.2499H48.2C46.9021 54.2499 45.85 53.1586 45.85 51.8124Z" fill="white"/>
</g>
</g>
</svg>
