<svg width="88" height="88" viewBox="0 0 88 88" fill="none" xmlns="http://www.w3.org/2000/svg">
<g id="Group 79">
<g id="Rectangle 31">
<rect y="-6.10352e-05" width="88" height="88" rx="30" fill="#2875E9"/>
<rect x="0.5" y="0.499939" width="87" height="87" rx="29.5" stroke="white" stroke-opacity="0.1"/>
</g>
<g id="Group 78">
<path id="message_three_points-[#1560]" fill-rule="evenodd" clip-rule="evenodd" d="M59.2766 44.3711C59.2766 46.7469 57.3523 48.6711 54.9766 48.6711C52.6008 48.6711 50.6765 46.7469 50.6765 44.3711C50.6765 41.9954 52.6008 40.0711 54.9766 40.0711C57.3523 40.0711 59.2766 41.9954 59.2766 44.3711ZM48.5265 44.3711C48.5265 46.7469 46.6023 48.6711 44.2265 48.6711C41.8507 48.6711 39.9265 46.7469 39.9265 44.3711C39.9265 41.9954 41.8507 40.0711 44.2265 40.0711C46.6023 40.0711 48.5265 41.9954 48.5265 44.3711ZM37.7765 44.3711C37.7765 46.7469 35.8522 48.6711 33.4765 48.6711C31.1007 48.6711 29.1764 46.7469 29.1764 44.3711C29.1764 41.9954 31.1007 40.0711 33.4765 40.0711C35.8522 40.0711 37.7765 41.9954 37.7765 44.3711ZM60.4999 61.7002C60.4999 61.7002 54.8755 60.1028 50.9904 60.1028C47.8213 60.1028 47.0989 60.6639 44.4092 60.6639C35.6372 60.6639 28.5507 54.1924 27.4628 46.3298C26.018 35.8936 34.3278 27.2979 44.4092 27.3C52.8867 27.3 59.5561 33.1115 61.1256 40.3786C61.7018 43.0338 61.6437 45.6697 60.9579 48.2111C60.1409 51.2318 60.1774 54.6288 61.0632 58.0323C61.5169 59.7717 62.3511 61.7002 60.4999 61.7002ZM65.8233 59.2471C65.8233 59.2471 65.2278 56.9572 65.2257 56.9486C64.5742 54.4546 64.4344 51.8209 65.1074 49.3333C65.9373 46.2674 66.077 42.9262 65.3288 39.469C63.3508 30.3207 54.9529 23 44.4092 23C31.5995 22.9979 21.4192 34.0231 23.2037 46.9189C24.584 56.8971 33.4721 64.9639 44.4092 64.9639C47.5676 64.9639 48.204 64.4028 50.9925 64.4028C54.3552 64.4028 59.111 65.8261 59.111 65.8261C63.1702 66.843 66.8596 63.2267 65.8233 59.2471Z" fill="#1B4380"/>
<path id="message_three_points-[#1560]_2" fill-rule="evenodd" clip-rule="evenodd" d="M59.2765 44.3711C59.2765 46.7469 57.3523 48.6712 54.9765 48.6712C52.6007 48.6712 50.6765 46.7469 50.6765 44.3711C50.6765 41.9954 52.6007 40.0711 54.9765 40.0711C57.3523 40.0711 59.2765 41.9954 59.2765 44.3711ZM48.5265 44.3711C48.5265 46.7469 46.6022 48.6712 44.2265 48.6712C41.8507 48.6712 39.9264 46.7469 39.9264 44.3711C39.9264 41.9954 41.8507 40.0711 44.2265 40.0711C46.6022 40.0711 48.5265 41.9954 48.5265 44.3711ZM37.7764 44.3711C37.7764 46.7469 35.8522 48.6712 33.4764 48.6712C31.1006 48.6712 29.1764 46.7469 29.1764 44.3711C29.1764 41.9954 31.1006 40.0711 33.4764 40.0711C35.8522 40.0711 37.7764 41.9954 37.7764 44.3711Z" fill="white"/>
</g>
</g>
</svg>
