<svg width="88" height="88" viewBox="0 0 88 88" fill="none" xmlns="http://www.w3.org/2000/svg">
<g id="Group 79">
<g id="Rectangle 31">
<rect y="-6.10352e-05" width="88" height="88" rx="30" fill="#2875E9"/>
<rect x="0.5" y="0.499939" width="87" height="87" rx="29.5" stroke="white" stroke-opacity="0.1"/>
</g>
<g id="Group 78">
<path id="Vector" d="M22 37.1111V51.2156C22 56.3979 22 56.3979 26.8889 59.6979L40.3333 67.4712C42.3622 68.6445 45.6622 68.6445 47.6667 67.4712L61.1111 59.6979C66 56.3979 66 56.3979 66 51.2401V37.1111C66 31.9533 66 31.9533 61.1111 28.6533L47.6667 20.88C45.6622 19.7067 42.3622 19.7067 40.3333 20.88L26.8889 28.6533C22 31.9533 22 31.9533 22 37.1111Z" stroke="white" stroke-width="5" stroke-linecap="round" stroke-linejoin="round"/>
<path id="Vector_2" d="M43.9998 51.5093C48.05 51.5093 51.3332 48.2262 51.3332 44.176C51.3332 40.1258 48.05 36.8427 43.9998 36.8427C39.9496 36.8427 36.6665 40.1258 36.6665 44.176C36.6665 48.2262 39.9496 51.5093 43.9998 51.5093Z" stroke="#1B4380" stroke-width="5" stroke-linecap="round" stroke-linejoin="round"/>
</g>
</g>
</svg>
