<svg width="88" height="88" viewBox="0 0 88 88" fill="none" xmlns="http://www.w3.org/2000/svg">
<g id="Group 79">
<g id="Rectangle 31">
<rect y="-6.10352e-05" width="88" height="88" rx="30" fill="#2875E9"/>
<rect x="0.5" y="0.499939" width="87" height="87" rx="29.5" stroke="white" stroke-opacity="0.1"/>
</g>
<g id="Group 78">
<path id="Vector" d="M65.5 24H60.5C59.1193 24 58 25.2398 58 26.7692V57.2308C58 58.7602 59.1193 60 60.5 60H65.5C66.8807 60 68 58.7602 68 57.2308V26.7692C68 25.2398 66.8807 24 65.5 24Z" fill="#1B4380"/>
<path id="Vector_2" d="M46.5 34H41.5C40.1193 34 39 35.6629 39 37.7143V56.2857C39 58.3371 40.1193 60 41.5 60H46.5C47.8807 60 49 58.3371 49 56.2857V37.7143C49 35.6629 47.8807 34 46.5 34Z" fill="white"/>
<path id="Vector_3" d="M27.5 38H22.5C21.1193 38 20 38.8954 20 40V58C20 59.1046 21.1193 60 22.5 60H27.5C28.8807 60 30 59.1046 30 58V40C30 38.8954 28.8807 38 27.5 38Z" fill="#1B4380"/>
</g>
</g>
</svg>
